<?xml version="1.0" encoding="UTF-8" standalone="no"?>
<!-- Generator: Adobe Illustrator 19.0.0, SVG Export Plug-In . SVG Version: 6.00 Build 0)  -->

<svg
   xmlns:dc="http://purl.org/dc/elements/1.1/"
   xmlns:cc="http://creativecommons.org/ns#"
   xmlns:rdf="http://www.w3.org/1999/02/22-rdf-syntax-ns#"
   xmlns:svg="http://www.w3.org/2000/svg"
   xmlns="http://www.w3.org/2000/svg"
   xmlns:sodipodi="http://sodipodi.sourceforge.net/DTD/sodipodi-0.dtd"
   xmlns:inkscape="http://www.inkscape.org/namespaces/inkscape"
   version="1.1"
   id="Capa_1"
   x="0px"
   y="0px"
   viewBox="0 0 60 60"
   style="enable-background:new 0 0 60 60;"
   xml:space="preserve"
   inkscape:version="0.91 r13725"
   sodipodi:docname="user-4.svg"><metadata
     id="metadata3373"><rdf:RDF><cc:Work
         rdf:about=""><dc:format>image/svg+xml</dc:format><dc:type
           rdf:resource="http://purl.org/dc/dcmitype/StillImage" /><dc:title /></cc:Work></rdf:RDF></metadata><defs
     id="defs3371"><pattern
       y="0"
       x="0"
       height="6"
       width="6"
       patternUnits="userSpaceOnUse"
       id="EMFhbasepattern" /><pattern
       y="0"
       x="0"
       height="6"
       width="6"
       patternUnits="userSpaceOnUse"
       id="EMFhbasepattern-3" /></defs><sodipodi:namedview
     pagecolor="#ffffff"
     bordercolor="#666666"
     borderopacity="1"
     objecttolerance="10"
     gridtolerance="10"
     guidetolerance="10"
     inkscape:pageopacity="0"
     inkscape:pageshadow="2"
     inkscape:window-width="1680"
     inkscape:window-height="997"
     id="namedview3369"
     showgrid="false"
     inkscape:zoom="4.9143921"
     inkscape:cx="16.373478"
     inkscape:cy="36.935158"
     inkscape:window-x="-8"
     inkscape:window-y="-8"
     inkscape:window-maximized="1"
     inkscape:current-layer="Capa_1" /><path
     d="m 52.742759,34.811096 c 0,-12.654951 -10.291626,-22.950583 -22.941654,-22.950583 -12.650029,0 -22.9416555,10.295632 -22.9416555,22.950583 0,4.698749 1.4208531,9.070836 3.8526685,12.713093 l -0.0015,0.01607 0.158297,0.231801 c 0.13765,0.2012 0.286006,0.39169 0.429774,0.587535 0.05812,0.07957 0.115473,0.159889 0.175121,0.239451 0.182004,0.241746 0.369361,0.478902 0.559776,0.712233 0.05506,0.06732 0.110885,0.133878 0.16671,0.200435 0.884783,1.059552 1.85598,2.029596 2.90059,2.902484 0.06348,0.05279 0.126179,0.106338 0.190415,0.159124 0.227887,0.1859 0.458068,0.367975 0.692838,0.544694 0.09483,0.07191 0.19118,0.141528 0.28677,0.21191 0.223299,0.163714 0.446598,0.325898 0.676014,0.481197 0.122356,0.08338 0.2493,0.161419 0.373185,0.242511 0.318124,0.206556 0.639307,0.406226 0.966608,0.59595 0.227888,0.133114 0.456539,0.265462 0.68978,0.390926 0.140708,0.07574 0.284476,0.146118 0.426714,0.218795 0.248535,0.126994 0.497834,0.250161 0.750957,0.367974 0.127709,0.05891 0.255417,0.117048 0.38389,0.17366 0.292888,0.130053 0.5896,0.253221 0.888607,0.371034 0.09253,0.03672 0.184298,0.07421 0.277594,0.110163 0.820547,0.310598 1.66327,0.576825 2.525112,0.792561 0.03518,0.0092 0.07112,0.01607 0.106296,0.02448 0.380831,0.09333 0.765486,0.17672 1.153965,0.250927 0.103237,0.01989 0.206475,0.03749 0.309713,0.05585 0.324241,0.05738 0.650013,0.107868 0.978843,0.151473 0.125415,0.01683 0.250064,0.0329 0.375479,0.0482 0.320418,0.03672 0.643131,0.0658 0.967373,0.08951 0.120826,0.0092 0.240888,0.02066 0.361713,0.02754 0.436657,0.02295 0.875607,0.03902 1.318381,0.03902 0.442774,0 0.881724,-0.01607 1.31838,-0.04055 0.120826,-0.0069 0.240887,-0.01913 0.361714,-0.02754 0.324241,-0.02372 0.646955,-0.05202 0.967372,-0.08951 0.125415,-0.01454 0.250829,-0.03137 0.375479,-0.0482 0.328831,-0.04361 0.654602,-0.0941 0.978844,-0.151473 0.103237,-0.01836 0.206475,-0.03596 0.309713,-0.05585 0.388478,-0.07421 0.773133,-0.157594 1.153965,-0.250927 0.03518,-0.0084 0.07112,-0.01607 0.106296,-0.02448 0.861841,-0.215735 1.704565,-0.481962 2.525111,-0.79256 0.0933,-0.03519 0.185828,-0.07344 0.279124,-0.110163 0.299006,-0.117813 0.594954,-0.240981 0.887842,-0.370269 0.128473,-0.05661 0.256946,-0.114753 0.383891,-0.17366 0.253122,-0.117813 0.503186,-0.240981 0.750956,-0.367974 0.142239,-0.07268 0.286006,-0.143824 0.426715,-0.218795 0.23324,-0.125464 0.461127,-0.257812 0.689779,-0.390926 0.327301,-0.190489 0.649249,-0.389394 0.966608,-0.59595 0.12465,-0.08109 0.250829,-0.159124 0.373184,-0.242511 0.228653,-0.155299 0.451951,-0.317483 0.676015,-0.481197 0.09559,-0.07039 0.191945,-0.139998 0.28677,-0.21191 0.234005,-0.17672 0.464951,-0.358794 0.692838,-0.544694 0.06424,-0.05279 0.126944,-0.106338 0.190416,-0.159124 1.045374,-0.873653 2.015807,-1.842932 2.901354,-2.903249 0.05583,-0.06656 0.110885,-0.132349 0.16518,-0.19967 0.190417,-0.233331 0.377773,-0.470487 0.559777,-0.712233 0.05965,-0.07879 0.116237,-0.159124 0.175121,-0.239451 0.143003,-0.195845 0.292124,-0.386335 0.429774,-0.587535 l 0.158297,-0.231801 -0.0015,-0.01607 c 2.431815,-3.641491 3.852668,-8.013578 3.852668,-12.712327 z m -1.529443,0 c 0,3.803676 -1.001021,7.376317 -2.746116,10.476176 -1.309204,-4.34072 -5.315582,-7.416098 -10.016327,-7.416098 l -0.685191,0 -3.86108,0 c -0.154474,0 -0.279888,-0.125463 -0.279888,-0.279232 l 0,-0.493438 c 0,-0.139998 0.113943,-0.231801 0.211063,-0.269287 4.924043,-1.852112 7.995166,-9.535202 7.35127,-14.908698 -0.335712,-2.798441 -1.721388,-5.299289 -3.734136,-7.110855 8.037991,3.088383 13.760405,10.886991 13.760405,20.001432 z m -4.176911,12.691673 c -0.06195,0.08339 -0.123885,0.166009 -0.186592,0.248631 -0.170533,0.22415 -0.342596,0.446771 -0.521541,0.664036 -0.01835,0.02219 -0.03747,0.04361 -0.05583,0.0658 -0.617896,0.743599 -1.285498,1.444357 -1.99669,2.098449 -0.04206,0.03902 -0.08411,0.07879 -0.126943,0.117047 -0.211828,0.192021 -0.429009,0.378686 -0.648484,0.56229 -0.06883,0.05738 -0.138415,0.113988 -0.208004,0.170599 -0.213358,0.17366 -0.428245,0.344259 -0.64772,0.509503 -0.07418,0.05585 -0.15065,0.108633 -0.225593,0.163714 -0.126179,0.09257 -0.253888,0.182075 -0.381596,0.271582 l 0,-3.792966 -1.529444,0 0,4.768366 c -0.02983,0.0176 -0.05965,0.03443 -0.09024,0.05202 -0.195004,0.111693 -0.389243,0.22262 -0.587306,0.327428 -0.135356,0.07192 -0.273006,0.141529 -0.410656,0.211146 -0.230946,0.116283 -0.463422,0.22874 -0.69819,0.336608 -0.114709,0.05279 -0.228653,0.105573 -0.344126,0.156064 -0.294418,0.128524 -0.591894,0.250926 -0.891666,0.366444 -0.06195,0.02372 -0.122355,0.04973 -0.184297,0.07268 -0.764722,0.286117 -1.546268,0.529393 -2.342343,0.726768 -0.05736,0.01454 -0.115473,0.02601 -0.172827,0.03978 -0.329595,0.0788 -0.662249,0.150709 -0.996433,0.213442 -0.09941,0.01913 -0.198828,0.03596 -0.299006,0.05355 -0.296712,0.05202 -0.594954,0.09716 -0.894725,0.136173 -0.115473,0.0153 -0.230946,0.03137 -0.347184,0.04437 -0.296712,0.03443 -0.594953,0.05967 -0.894723,0.08186 -0.110886,0.0077 -0.221005,0.01913 -0.332654,0.02525 -0.406068,0.02448 -0.812135,0.03825 -1.220496,0.03825 -0.408362,0 -0.814429,-0.01377 -1.219732,-0.03672 -0.11165,-0.0061 -0.221769,-0.0176 -0.332655,-0.02525 -0.299005,-0.02219 -0.598011,-0.04743 -0.894723,-0.08185 -0.116238,-0.01301 -0.231711,-0.02907 -0.347184,-0.04437 -0.299771,-0.03978 -0.598013,-0.08492 -0.894725,-0.136174 -0.09941,-0.0176 -0.199592,-0.03443 -0.299006,-0.05355 -0.334184,-0.0635 -0.666838,-0.134642 -0.996433,-0.214205 -0.05736,-0.01377 -0.114708,-0.02601 -0.172062,-0.03978 -0.796075,-0.19814 -1.578386,-0.440652 -2.343108,-0.726769 -0.06195,-0.02295 -0.12312,-0.04896 -0.184297,-0.07268 -0.299771,-0.115518 -0.596483,-0.237921 -0.890902,-0.366445 -0.115473,-0.05049 -0.230181,-0.103277 -0.344889,-0.156063 -0.234769,-0.107868 -0.467245,-0.220326 -0.698191,-0.336609 -0.13765,-0.06962 -0.2753,-0.138468 -0.410656,-0.211145 -0.198063,-0.104808 -0.393067,-0.216501 -0.587306,-0.327428 -0.02983,-0.0176 -0.06042,-0.03443 -0.09024,-0.05202 l 0,-4.769132 -1.529443,0 0,3.792967 c -0.128473,-0.08951 -0.256181,-0.17978 -0.381596,-0.271582 -0.07495,-0.05508 -0.151415,-0.107868 -0.225593,-0.163715 -0.219475,-0.165244 -0.434362,-0.335842 -0.646955,-0.508737 -0.07036,-0.05662 -0.139944,-0.113988 -0.209533,-0.171365 -0.219476,-0.18284 -0.435892,-0.369504 -0.64772,-0.561524 -0.04283,-0.03902 -0.08565,-0.07957 -0.128474,-0.118577 -0.711191,-0.654093 -1.378793,-1.354086 -1.995923,-2.097684 -0.01835,-0.02219 -0.03747,-0.04361 -0.05583,-0.0658 -0.178939,-0.217275 -0.351001,-0.439896 -0.521534,-0.664046 -0.06271,-0.08262 -0.125415,-0.165244 -0.186592,-0.248631 -0.09177,-0.124699 -0.180475,-0.251692 -0.269182,-0.378685 0.598777,-4.423343 4.354326,-7.722871 8.854714,-7.722871 l 2.214634,0 6.435135,6.436873 6.434369,-6.436873 2.214634,0 c 4.500389,0 8.256702,3.299528 8.855479,7.722871 -0.08871,0.126993 -0.17665,0.253986 -0.269182,0.378685 z M 26.352974,35.416227 c -3.656899,-1.35332 -6.493253,-7.605058 -6.493253,-12.080422 0,-0.09792 0.01147,-0.19355 0.01376,-0.290708 l 0.559777,-0.690812 c 1.262556,-1.502498 3.417542,-1.932439 5.36223,-1.071027 0.78231,0.347319 1.615092,0.522508 2.476169,0.522508 2.271989,0 4.313031,-1.235506 5.374465,-3.200841 2.433345,0.799446 4.605155,2.306533 6.074185,4.206076 0.224064,4.666619 -2.518993,11.118028 -6.422134,12.5861 -0.731074,0.275407 -1.202907,0.943269 -1.202907,1.701403 l 0,0.493438 c 0,0.99682 0.812135,1.809271 1.808567,1.809271 l 0.169004,0 -4.271736,4.273398 -4.271737,-4.273398 0.169004,0 c 0.996433,0 1.808567,-0.812451 1.808567,-1.809271 l 0,-0.485787 c 0,-0.75431 -0.462657,-1.433647 -1.153965,-1.689928 z m 3.47872,-22.024144 c 0.0092,0 0.01682,0 0.02524,0 0.373949,0.0023 0.74178,0.02295 1.093552,0.0635 3.792255,0.423056 6.979617,3.063903 8.222289,6.570752 -1.617387,-1.409166 -3.60031,-2.493963 -5.73312,-3.080733 l -0.65766,-0.180545 -0.254652,0.631906 c -0.704309,1.748069 -2.374462,2.878768 -4.255677,2.878768 -0.64619,0 -1.270968,-0.131583 -1.855981,-0.390924 -2.11522,-0.936384 -4.42468,-0.683163 -6.130774,0.558464 0.468774,-1.549929 1.315322,-2.969806 2.493758,-4.146405 1.876627,-1.873533 4.368855,-2.90478 7.053029,-2.90478 z m -7.691573,1.421406 c -0.147591,0.133113 -0.299771,0.258576 -0.442009,0.400105 -2.17181,2.16883 -3.367835,5.052188 -3.367835,8.122211 0,5.071314 3.204185,11.928948 7.49198,13.514833 0.091,0.03443 0.155239,0.139234 0.155239,0.255517 l 0,0.485787 c 0,0.153769 -0.125414,0.279232 -0.279124,0.279232 l -3.861081,0 -0.68519,0 c -4.70151,0 -8.707888,3.075378 -10.017092,7.416098 -1.745095,-3.099859 -2.7461159,-6.6725 -2.7461159,-10.476176 0,-9.111381 5.7178249,-16.906929 13.7512279,-19.997607 z"
     id="path3337"
     style="fill:#ffffff"
     inkscape:connector-curvature="0" /><g
     id="g3339" /><g
     id="g3341" /><g
     id="g3343" /><g
     id="g3345" /><g
     id="g3347" /><g
     id="g3349" /><g
     id="g3351" /><g
     id="g3353" /><g
     id="g3355" /><g
     id="g3357" /><g
     id="g3359" /><g
     id="g3361" /><g
     id="g3363" /><g
     id="g3365" /><g
     id="g3367" /><g
     id="g3469"
     transform="matrix(0.35270239,0,0,0.35283964,22.998009,13.806022)"
     style="fill:#ffffff"><path
       style="fill:#ffffff;fill-opacity:1;fill-rule:nonzero;stroke:none"
       d="m -49.171341,39.610936 -14.897439,-4.560429 1.520147,-4.864383 0.608056,-2.128237 0.60806,-1.216096 0.304032,-0.608189 0.608048,-0.607906 0.608076,-0.304236 0.608047,-0.303953 1.520162,-0.303954 0.912086,0 0.912086,0.303954 1.216095,0.608189 0.912115,0.607906 0.608048,0.912142 0.304038,0.912143 0.304009,0.912142 0,0.91186 -0.304009,1.216378 -0.304038,1.824002 -0.608048,2.128238 5.472514,1.520049 -0.912085,3.04038 z m -11.553106,-6.688667 4.256391,1.216095 0.608076,-1.520048 0.30401,-1.520049 0.304038,-0.608189 0,-0.303954 -0.304038,-0.912142 -0.30401,-0.303953 -0.304038,-0.608189 -0.608048,-0.303953 -0.608076,0 -0.30401,0 -0.608076,0.303953 -0.608048,0.303953 -0.608076,0.608189 -0.608047,2.128238 -0.608048,1.520049 z"
       id="path3425"
       inkscape:connector-curvature="0" /><path
       style="fill:#ffffff;fill-opacity:1;fill-rule:nonzero;stroke:none"
       d="m -44.306874,25.017507 -13.681316,-7.600809 3.040296,-5.776525 1.216124,-1.8240025 0.912086,-1.216095 1.216095,-0.608189 1.216124,-0.303954 0.608076,0 0.608048,0.303954 1.216123,0.303953 1.216096,0.912142 0.304038,0.608189 0.608076,0.9118605 0,0.608189 0,0.912142 0,0.912142 -0.304038,0.91186 0.912086,-0.607906 0.912086,-0.303954 1.216123,-0.304235 2.12821,0 3.344305,0 -1.824172,3.04038 -3.952381,0.303953 -1.824171,0.304236 -0.912086,0 -0.608076,0.303953 -0.608048,0.303953 -0.304038,0.608189 -0.608048,0.607907 -0.304038,0.608189 5.776553,3.344333 -1.520133,2.736145 z m -6.384629,-7.296574 1.216124,-1.824284 0.608076,-1.824285 0.608047,-0.91186 0,-0.608188 -0.304038,-0.303954 -0.304009,-0.608189 -0.608076,-0.303953 -0.608048,-0.303953 -0.608076,0 -0.608048,0.303953 -0.608048,0.303953 -1.216123,2.128238 -1.216125,2.128238 3.648344,1.824284 z"
       id="path3427"
       inkscape:connector-curvature="0" /><path
       style="fill:#ffffff;fill-opacity:1;fill-rule:nonzero;stroke:none"
       d="m -41.570617,5.5596955 -0.912086,-0.608189 -0.608048,-0.91186 -0.608076,-0.912143 -0.608047,-0.608188 -0.304038,-1.216096 0,-1.52004898 0,-1.21609502 0.304038,-1.216096 0.304038,-0.608189 0.304009,-0.607907 1.216124,-1.520274 1.216124,-1.216096 0.608048,-0.304038 0.608076,-0.304038 1.520133,-0.608048 1.216124,-0.304038 1.520134,0.304038 1.520048,0.608048 0.608189,0.304038 0.912143,0.304038 1.216095,1.216096 1.216096,1.216039 0.912142,1.520331 0.607907,1.216096 0.303953,1.52004802 0,1.52004898 -0.303953,1.520331 -0.912143,1.216096 -0.91186,1.216096 -1.216095,1.216095 -1.216378,0.912142 -1.520049,0.303954 -1.520105,0.303953 -1.216124,-0.303953 -1.520162,-0.303954 -1.520133,-0.912142 -1.216124,-1.216095 z m 2.128209,-2.432192 0.912086,0.912143 0.912086,0.607906 0.912086,0.303954 0.912086,0.304235 0.912142,-0.304235 0.912142,-0.303954 0.607907,-0.303953 0.608189,-0.608189 0.607906,-0.607907 0.304236,-0.912142 0.303953,-0.608189 0,-0.91185998 -0.303953,-0.912142 -0.304236,-0.91214202 -0.607906,-0.912142 -0.912143,-0.912143 -0.912142,-0.91186 -0.912142,-0.608188 -0.912001,-0.30401 -0.912086,-0.304038 -0.912086,0.304038 -0.912086,0 -0.608076,0.607963 -0.912085,0.608189 -0.30401,0.607906 -0.608076,0.912143 0,0.912142 0,0.91214202 0,0.607907 0.608076,0.91214198 0.608048,0.912142 0.912085,0.912142 z"
       id="path3429"
       inkscape:connector-curvature="0" /><path
       style="fill:#ffffff;fill-opacity:1;fill-rule:nonzero;stroke:none"
       d="m -22.720684,-2.3450675 -8.512952,-13.0732945 8.816905,-5.776553 1.520049,2.12821 -6.384431,4.256419 2.127955,3.040295 5.472571,-3.648371 1.520331,2.432248 -5.472571,3.3443325 3.648287,5.776665 -2.736144,1.520049 z"
       id="path3431"
       inkscape:connector-curvature="0" /><path
       style="fill:#ffffff;fill-opacity:1;fill-rule:nonzero;stroke:none"
       d="m -10.559729,-9.6417815 -6.080478,-14.5934285 10.9451425,-4.560429 0.91186,2.736257 -7.9047625,3.040295 1.520331,3.344334 6.9926195,-3.040295 1.216096,2.432219 -7.2965725,3.040295 1.5200485,3.952382 8.20871501,-3.344306 0.912142,2.43222 -10.94514151,4.5604565 z"
       id="path3433"
       inkscape:connector-curvature="0" /><path
       style="fill:#ffffff;fill-opacity:1;fill-rule:nonzero;stroke:none"
       d="m 2.5136505,-19.978791 2.736145,-0.912086 0.608188,1.216124 0.607907,0.608048 0.304236,0.304038 0.607906,0.304038 0.608189,0 1.216096,0 1.2160955,-0.304038 0.912143,-0.608076 0.607906,-0.912086 0,-0.608048 -0.303953,-0.608047 -0.303953,-0.304038 -0.304236,-0.304038 -0.91186,-0.30401 -2.4321915,-0.304038 -1.216378,0 -1.216095,-0.304039 -1.520049,-0.608047 -0.608189,-0.608076 -0.607907,-0.608048 -0.303953,-0.912086 -0.304236,-0.608048 0,-1.216124 0.304236,-1.216123 0.303953,-0.608048 0.303953,-0.60807 1.216096,-0.60806 1.216096,-0.608056 1.824284,-0.608059 1.216096,0 1.216095,0 1.2160965,0.30403 0.912142,0.304029 0.608189,0.912086 0.607906,0.608062 0.608189,0.912086 0.303954,0.912085 -3.344334,0.608048 -0.303953,-0.912086 -0.3042365,-0.304009 -0.303953,-0.304038 -0.912142,-0.304038 -1.216096,0 -1.216095,0.304038 -0.912142,0.608047 -0.303954,0.608076 0,0.608048 0,0.304038 0.303954,0 0.304235,0.608048 1.216096,0.304038 1.824002,0 2.1282385,0.304038 1.520331,0.30401 0.91186,0.608076 0.912142,0.608048 0.303953,0.608047 0.304236,0.608077 0.303953,1.216124 0,1.520133 0,0.608048 -0.303953,0.608076 -0.304236,0.608048 -0.303953,0.608076 -1.216096,0.608047 -1.520048,0.912086 -1.8242855,0.304038 -1.216095,0.30401 -1.216096,-0.30401 -1.216096,-0.304038 -0.912142,-0.304038 -0.912142,-0.608048 -0.607907,-0.912085 -0.608189,-0.912086 -0.303953,-1.216124 z"
       id="path3435"
       inkscape:connector-curvature="0" /><path
       style="fill:#ffffff;fill-opacity:1;fill-rule:nonzero;stroke:none"
       d="m 18.931082,-16.938496 -0.303953,-15.809524 3.344333,0 0.303954,15.809524 -3.344334,0 z"
       id="path3437"
       inkscape:connector-curvature="0" /><path
       style="fill:#ffffff;fill-opacity:1;fill-rule:nonzero;stroke:none"
       d="m 26.531891,-24.843258 0.608189,-2.12821 0.303953,-0.912086 0.303954,-0.912085 0.912142,-0.912086 0.912142,-0.912092 1.216096,-0.608056 0.912142,-0.608059 1.824002,-0.304029 0.912142,0.304029 0.912143,0 1.520044,0.30403 1.52034,0.608059 0.91214,0.912086 0.6079,0.60807 0.60819,0.608048 0.30396,0.608047 0.30395,0.608076 0.30395,1.520134 0.30424,1.520162 -0.30424,1.824172 -0.30395,1.824171 -0.60791,1.520134 -0.91214,1.216124 -0.60819,0.608076 -0.6079,0.608047 -1.2161,0.608048 -1.2161,0.608076 -1.520327,0 -0.912142,0 -0.91186,0 -1.520331,-0.608076 -1.216096,-0.608048 -1.216095,-0.912085 -0.912142,-0.912086 -0.607907,-0.608076 -0.304236,-0.608048 -0.303953,-1.520133 -0.303953,-1.520163 0.303953,-1.824171 z m 3.344333,0.304038 -0.303953,1.216095 0,1.216125 0.303953,0.912085 0.303954,0.912086 0.608189,0.608076 0.608189,0.608048 0.91186,0.304038 0.912142,0.304038 0.912142,0 0.912142,0 0.607907,-0.304038 0.912141,-0.608076 0.30395,-0.30401 0.30424,-0.304038 0.30395,-0.912086 0.60791,-1.216123 0.30424,-1.216125 0,-1.216095 0,-0.912086 -0.30424,-1.216124 -0.30395,-0.608076 -0.60791,-0.912086 -0.60819,-0.304009 -0.912141,-0.304038 -0.912142,-0.304038 -0.91186,0 -0.608189,0 -0.912142,0.304038 -0.607907,0.608047 -0.608189,0.304038 -0.303953,0.304038 -0.303954,0.912086 -0.608189,0.912086 0,1.216124 z"
       id="path3439"
       inkscape:connector-curvature="0" /><path
       style="fill:#ffffff;fill-opacity:1;fill-rule:nonzero;stroke:none"
       d="m 43.86175,-13.594162 6.38443,-14.289392 2.73642,1.216124 1.52005,11.857144 4.25648,-9.424924 2.73614,1.216123 -6.38443,14.2893915 -3.04038,-1.216124 -1.52033,-11.8571425 -3.95224,9.424895 -2.73614,-1.216095 z"
       id="path3441"
       inkscape:connector-curvature="0" /><path
       style="fill:#ffffff;fill-opacity:1;fill-rule:nonzero;stroke:none"
       d="m 70.31218,1.6071725 -2.73615,-1.82400198 0.91186,-3.64828702 -4.86438,-3.648484 -3.34433,2.12821 -2.73615,-2.12821 14.2892,-9.1208575 2.73642,2.12821 -4.25647,16.1134205 z m -0.91214,-8.208659 1.52033,-6.0805895 -5.16862,3.6483425 3.64829,2.432247 z"
       id="path3443"
       inkscape:connector-curvature="0" /><path
       style="fill:#ffffff;fill-opacity:1;fill-rule:nonzero;stroke:none"
       d="m 72.13646,4.0396465 11.857,-10.033085 2.12824,2.432276 -9.72904,8.208715 4.86466,6.0804785 -2.12824,1.824285 -6.99262,-8.5126695 z"
       id="path3445"
       inkscape:connector-curvature="0" /><path
       style="fill:#ffffff;fill-opacity:1;fill-rule:nonzero;stroke:none"
       d="m 81.25732,14.984507 13.68129,-7.6005275 5.47257,10.0327185 -2.12824,1.520331 -4.25648,-7.296856 -3.04038,1.520331 3.95253,6.688667 -2.43219,1.520049 -3.64857,-6.99262 -3.95224,2.128238 4.25647,7.600526 -2.12824,1.216096 -5.77652,-10.336953 z"
       id="path3447"
       inkscape:connector-curvature="0" /><path
       style="fill:#ffffff;fill-opacity:1;fill-rule:nonzero;stroke:none"
       d="m 93.11432,26.537556 1.2161,2.736426 -1.2161,0.912142 -0.6079,0.912143 -0.30424,0.607906 0,0.608189 0,1.216096 0.30424,0.607906 0.30395,0.608189 0.30395,0.303954 0.60819,0.303953 0.60791,0.608189 0.60819,0 0.30395,-0.303953 0.60819,0 0.30395,-0.608189 0,-0.303954 0.30396,-0.912142 -0.30396,-2.432191 0.30396,-2.432191 0.30395,-1.520331 0.30423,-0.607907 0.60791,-0.912142 0.91214,-0.303953 0.91215,-0.304236 0.30395,-0.303953 0.60819,0 1.21609,0.303953 0.60791,0 0.60819,0.304236 0.60791,0.607906 0.30423,0.303954 0.91186,1.216377 0.60819,1.520049 0.30395,1.520049 0,1.216096 0,1.216095 -0.30395,0.912142 -0.60819,0.608189 -0.60791,0.912143 -0.91214,0.607906 -0.91214,0.303954 -0.91214,-3.040098 0.91214,-0.608189 0.30424,-0.607907 0.30395,-0.912142 -0.30395,-1.216096 -0.30424,-1.216095 -0.91214,-0.608189 -0.30396,-0.303953 -0.6079,0 -0.60819,0.303953 -0.30395,0.303953 0,1.216096 0,2.128238 0,1.824284 0,1.520049 -0.60819,1.216096 -0.60791,0.912142 -0.30424,0.608189 -0.6079,0.303953 -1.2161,0.608189 -1.21609,0 -1.52033,0 -1.2161,-0.608189 -0.30395,-0.608189 -0.60791,-0.303953 -0.91214,-1.520049 -0.60819,-1.520331 -0.30395,-1.520049 -0.30396,-1.216096 0.30396,-1.216095 0.30395,-0.912142 0.60819,-0.912143 0.6079,-0.91186 0.91215,-0.608189 1.21609,-0.608188 z"
       id="path3449"
       inkscape:connector-curvature="0" /></g></svg>